<svg xmlns="http://www.w3.org/2000/svg"
    width="48"
    height="48"
    viewBox="0 0 24 24"
    fill="none"
    stroke="currentColor"
    stroke-width="1.8"
    stroke-linecap="round"
    stroke-linejoin="round">

    <!-- Trachea -->
    <path d="M12 3v6" />

    <!-- Left lung -->
    <path
        d="M12 9
             C10 9 8 11 7.5 13
             C7 15 7 18 8 20
             C9 21 11 21 12 19" />

    <!-- Right lung -->
    <path
        d="M12 9
             C14 9 16 11 16.5 13
             C17 15 17 18 16 20
             C15 21 13 21 12 19" />

    <!-- Airflow lines (asthma breathing emphasis) -->
    <path d="M3 10c1-1 2-1 3 0s2 1 3 0" />
    <path d="M2 13c1-1 2-1 3 0s2 1 3 0" />
</svg>
