<svg xmlns="http://www.w3.org/2000/svg"
    width="48"
    height="48"
    viewBox="0 0 24 24"
    fill="none"
    stroke="currentColor"
    stroke-width="1.8"
    stroke-linecap="round"
    stroke-linejoin="round">

    <!-- Trachea -->
    <path d="M12 3v7" />

    <!-- Left lung -->
    <path
        d="M12 10
             C10 10 8 11.5 7 14
             C6.3 15.8 6 17.5 6 19
             C6 20.1 6.9 21 8 21
             C10.2 21 12 19.2 12 17" />

    <!-- Right lung -->
    <path
        d="M12 10
             C14 10 16 11.5 17 14
             C17.7 15.8 18 17.5 18 19
             C18 20.1 17.1 21 16 21
             C13.8 21 12 19.2 12 17" />

    <!-- Airflow -->
    <path d="M3 8c1-1 2-1 3 0s2 1 3 0" />
    <path d="M2 11c1-1 2-1 3 0s2 1 3 0" />
</svg>
